<svg xmlns="http://www.w3.org/2000/svg" viewBox="0 0 200 200" xml:space="preserve"><path fill="#282828" d="M113.032 108.198c-1 0-2-.3-2.9-.9l-10-7.3-10 7.3c-1.7 1.2-4.1 1.2-5.8 0-1.7-1.2-2.4-3.4-1.8-5.5l3.9-11.8-10-7.2c-1.7-1.2-2.4-3.4-1.8-5.5.7-2 2.5-3.4 4.7-3.4h12.4l3.8-11.8c.7-2 2.5-3.4 4.7-3.4 2.1 0 4 1.4 4.7 3.4l3.7 11.9h12.4c2.1 0 4 1.4 4.7 3.4.7 2-.1 4.2-1.8 5.5l-10 7.3 3.9 11.8c.7 2 0 4.2-1.8 5.5-.9.4-1.9.7-3 .7zm-12.8-12.7c.4 0 .8.1 1.2.4l11.2 8.2c.4.3.7.3 1.1 0 .3-.2.5-.6.3-1l-4.4-13.2c-.3-.8 0-1.7.7-2.2l11.2-8.1c.3-.2.4-.6.3-1-.1-.4-.5-.6-.9-.6h-13.8c-.9 0-1.6-.6-1.9-1.4l-4.2-13.2c-.2-.8-1.5-.8-1.7 0l-4.2 13.2c-.3.8-1 1.4-1.9 1.4h-13.8c-.4 0-.7.2-.9.6-.1.4 0 .8.3 1l11.2 8.1c.7.5 1 1.4.7 2.2l-4.3 13.1c-.1.4 0 .8.3 1 .5.4.8.2 1.1 0l11.2-8.2c.3-.1.7-.3 1.2-.3z"/><path fill="#282828" d="M119.632 156.598c-.4 0-.9-.1-1.2-.4l-17.9-13.9-17.9 13.9c-.6.5-1.4.5-2.1.2-.7-.3-1.1-1-1.1-1.8v-29.9c-14.1-7.7-22.8-22.2-22.8-38.3 0-24.1 19.6-43.7 43.7-43.7s43.7 19.6 43.7 43.7c0 15.9-8.5 30.4-22.4 38.1v30.1c0 .8-.4 1.5-1.1 1.8-.3.1-.6.2-.9.2zm-19.1-18.8c.4 0 .9.1 1.2.4l15.9 12.3v-27.5c.1-.6.5-1.2 1-1.5a39.39 39.39 0 0 0 21.4-35.1c0-21.9-17.8-39.7-39.7-39.7-21.9 0-39.7 17.8-39.7 39.7 0 15 8.3 28.5 21.6 35.4.7.3 1.1 1 1.1 1.8v27l15.9-12.3c.4-.4.8-.5 1.3-.5z"/></svg>